M48
; DRILL file {KiCad (5.1.9)-1} date 01/26/21 21:08:48
; FORMAT={-:-/ absolute / inch / decimal}
; #@! TF.CreationDate,2021-01-26T21:08:48+02:00
; #@! TF.GenerationSoftware,Kicad,Pcbnew,(5.1.9)-1
; #@! TF.FileFunction,Plated,1,2,PTH
FMAT,2
INCH
T1C0.0157
T2C0.0236
T3C0.0315
T4C0.0472
T5C0.0512
T6C0.0551
T7C0.1260
%
G90
G05
T1
X2.4445Y-2.1948
X2.6838Y-2.4371
X2.7321Y-3.3253
X2.7528Y-3.5174
X2.8482Y-3.8453
X3.0723Y-4.4308
X3.1031Y-3.2776
X3.1376Y-3.3652
X3.1523Y-3.2729
X3.2714Y-2.4216
X3.3317Y-2.2742
X3.3577Y-2.5632
X3.5073Y-3.4442
X3.5866Y-4.3354
X3.5968Y-2.4569
X3.6408Y-2.3034
X3.7154Y-4.5133
X3.8874Y-2.1626
X3.9364Y-1.9312
X3.9413Y-3.0831
X3.9507Y-2.5671
X3.9521Y-2.9356
X4.0238Y-2.9966
X4.0343Y-2.8421
X4.074Y-2.8406
X4.1543Y-3.5206
X4.3081Y-2.2507
X4.3363Y-2.9174
X4.3511Y-4.471
X4.4157Y-2.3288
X4.4735Y-2.5671
X4.552Y-2.5742
X4.6521Y-2.5636
X4.6651Y-4.4548
X4.6822Y-2.4635
X4.7524Y-3.4506
X4.7867Y-2.8314
X4.8417Y-2.5675
X4.8825Y-4.3816
X4.9225Y-3.0477
X4.9351Y-3.4744
X4.9365Y-4.3718
X4.9531Y-2.8282
X4.9776Y-4.378
X5.0349Y-3.8203
X5.0505Y-3.8926
X5.0562Y-4.375
X5.0843Y-2.3153
X5.1131Y-3.4406
X5.1388Y-3.0101
X5.1506Y-3.7375
X5.1546Y-2.2225
X5.1551Y-4.4157
X5.2576Y-2.0934
X5.3143Y-4.1841
X5.3872Y-3.4018
X5.3907Y-1.9773
X5.4716Y-3.3708
X5.5388Y-2.1508
X5.5502Y-2.2782
X5.5643Y-4.5641
X5.5776Y-3.1733
X5.652Y-4.3529
X5.6619Y-2.9464
X5.7654Y-3.9759
X5.78Y-4.4495
X5.7928Y-3.5911
X5.8485Y-3.2486
X5.863Y-2.8535
X5.9167Y-3.4767
X5.9871Y-2.969
X5.9894Y-3.5521
X6.0709Y-2.32
X6.0878Y-3.1209
X6.1019Y-2.1389
T2
X2.3725Y-4.8176
X2.4316Y-4.6208
X3.0903Y-4.8313
X3.1494Y-4.6344
X3.7901Y-4.84
X3.8492Y-4.6432
X3.8676Y-3.0754
X3.8676Y-3.1246
X3.8676Y-3.1738
X3.8676Y-3.223
X4.1696Y-4.2674
X4.2188Y-4.2674
X4.268Y-4.2674
X4.3172Y-4.2674
X4.3665Y-4.2674
X4.4157Y-4.2674
X4.4649Y-4.2674
X4.5141Y-4.2674
X4.7352Y-4.2666
X4.7524Y-4.7968
X4.7844Y-4.2666
X4.8016Y-4.7968
X4.8336Y-4.2666
X4.8508Y-4.7968
X4.8622Y-2.3639
X4.8828Y-4.2666
X4.9Y-4.7968
X4.9114Y-2.3639
X4.932Y-4.2666
X4.9492Y-4.7968
X4.9606Y-2.3639
X5.0098Y-2.3639
T3
X2.4124Y-3.5442
X2.4218Y-2.6856
X2.4228Y-3.1162
X2.562Y-3.5442
X2.5714Y-2.6856
X2.5724Y-3.1162
X2.7702Y-2.9276
X2.9198Y-2.9276
X3.6782Y-2.712
X3.6782Y-2.8616
X4.1073Y-2.6674
X4.1073Y-2.7674
X4.1073Y-3.1674
X4.1073Y-3.2674
X4.1073Y-3.3674
X4.1073Y-3.6674
X4.1073Y-3.7674
X4.1073Y-3.8674
X4.1073Y-3.9674
X4.1073Y-4.0674
X4.2073Y-2.6674
X4.2073Y-2.7674
X4.2073Y-3.1674
X4.2073Y-3.2674
X4.2073Y-3.3674
X4.2073Y-3.6674
X4.2073Y-3.7674
X4.2073Y-3.8674
X4.2073Y-3.9674
X4.2073Y-4.0674
X4.3073Y-2.6674
X4.3073Y-2.7674
X4.3073Y-3.9674
X4.3073Y-4.0674
X4.4073Y-2.6674
X4.4073Y-2.7674
X4.4073Y-3.9674
X4.4073Y-4.0674
X4.5073Y-2.6674
X4.5073Y-2.7674
X4.5073Y-3.9674
X4.5073Y-4.0674
X4.6073Y-2.6674
X4.6073Y-2.7674
X4.6073Y-3.9674
X4.6073Y-4.0674
X4.7073Y-2.6674
X4.7073Y-2.7674
X4.7073Y-3.9674
X4.7073Y-4.0674
X4.8073Y-2.6674
X4.8073Y-2.7674
X4.8073Y-3.9674
X4.8073Y-4.0674
X4.9073Y-2.6674
X4.9073Y-2.7674
X4.9073Y-3.9674
X4.9073Y-4.0674
X5.0073Y-2.6674
X5.0073Y-2.7674
X5.0073Y-3.9674
X5.0073Y-4.0674
X5.1073Y-2.6674
X5.1073Y-2.7674
X5.1073Y-3.9674
X5.1073Y-4.0674
X5.2073Y-2.6674
X5.2073Y-2.7674
X5.2073Y-3.9674
X5.2073Y-4.0674
X5.3073Y-2.6674
X5.3073Y-2.7674
X5.3073Y-3.9674
X5.3073Y-4.0674
X5.4073Y-2.6674
X5.4073Y-2.7674
X5.4073Y-3.9674
X5.4073Y-4.0674
X5.5073Y-2.6674
X5.5073Y-2.7674
X5.5073Y-3.9674
X5.5073Y-4.0674
X5.6073Y-2.6674
X5.6073Y-2.7674
X5.6073Y-3.9674
X5.6073Y-4.0674
X5.7073Y-2.6674
X5.7073Y-2.7674
X5.8073Y-2.6674
X5.8073Y-2.7674
X5.9073Y-2.6674
X5.9073Y-2.7674
X6.0073Y-2.6674
X6.0073Y-2.7674
X6.1073Y-2.6674
X6.1073Y-2.7674
T4
X3.3857Y-2.071
X3.5357Y-2.071
X3.6857Y-2.071
X3.8357Y-2.071
X3.9857Y-2.071
X4.2722Y-2.0688
X4.4222Y-2.0688
X4.5722Y-2.0688
X4.8658Y-2.0698
X5.0158Y-2.0698
X5.1658Y-2.0698
X5.2516Y-4.662
X5.4016Y-4.662
X5.4584Y-2.0698
X5.6084Y-2.0698
X5.691Y-4.663
X5.7584Y-2.0698
X5.841Y-4.663
T5
X2.7524Y-3.6224
X2.7524Y-4.0224
X2.7524Y-4.3224
X3.0524Y-3.6224
X3.206Y-3.62
X3.206Y-4.02
X3.206Y-4.32
X3.506Y-3.62
X3.6616Y-3.6211
X3.6616Y-4.0211
X3.6616Y-4.3211
X3.9616Y-3.6211
T6
X2.6547Y-2.149
X2.6688Y-4.5816
X2.8516Y-2.149
X2.8656Y-4.5816
X3.0484Y-2.149
X3.37Y-4.583
X3.5669Y-4.583
X4.0724Y-4.5826
X4.2693Y-4.5826
T7
X2.546Y-4.37
X2.5464Y-2.3604
X5.9322Y-2.3612
X5.9328Y-4.3704
T0
M30
